<?xml version="1.0" encoding="utf-8"?>
<!-- Generator: Adobe Illustrator 15.1.0, SVG Export Plug-In . SVG Version: 6.00 Build 0)  -->
<!DOCTYPE svg PUBLIC "-//W3C//DTD SVG 1.1//EN" "http://www.w3.org/Graphics/SVG/1.1/DTD/svg11.dtd">
<svg version="1.1" id="Layer_1" xmlns="http://www.w3.org/2000/svg" xmlns:xlink="http://www.w3.org/1999/xlink" x="0px" y="0px"
	 width="882px" height="999.222px" viewBox="0 0 882 999.222" enable-background="new 0 0 882 999.222" xml:space="preserve">
<g>
	<path d="M285.719,468.945c-23.012-15.008-44.823-22.011-63.633-28.415c25.013,13.007,50.827,29.615,64.434,39.621
		s16.736,21.495,29.215,30.016c11.336,7.74,20.01,15.208,20.01,15.208s-10.806,16.608-33.217,1.201
		c-16.689-11.474-16.409-33.018-18.81-45.624c-2.401,5.203-7.949,32.511,1.401,47.024c7.515,11.665,24.931,29.616,42.772,29.616
		c24.613,0,41.472-19.21,41.472-19.21s9.605,4.602,22.812,5.403c13.207,0.8,16.609-3.202,18.01-6.804
		c-10.005-1-40.821-7.604-66.835-22.412S308.731,483.953,285.719,468.945z"/>
	<path d="M536.25,514.569c-26.013,14.808-56.83,21.411-66.834,22.412c1.4,3.602,4.802,7.604,18.009,6.804
		c13.207-0.801,22.812-5.403,22.812-5.403s16.858,19.21,41.471,19.21c17.841,0,35.258-17.951,42.772-29.616
		c9.35-14.513,3.802-41.822,1.401-47.024c-2.401,12.606-2.121,34.15-18.81,45.624c-22.412,15.408-33.217-1.201-33.217-1.201
		s8.674-7.468,20.011-15.208c12.479-8.521,15.608-20.01,29.215-30.016c13.607-10.005,39.421-26.614,64.434-39.621
		c-18.81,6.403-40.621,13.407-63.633,28.415C570.868,483.953,562.263,499.761,536.25,514.569z"/>
	<path d="M362.559,310.462c-14.007-12.807-30.816-26.814-48.025-61.632c10.005,57.23,44.423,84.444,59.23,98.051
		c-2.401-11.206-1.601-19.61-1.2-26.014c14.407,10.406,28.815,29.616,50.026,50.827c-20.411-30.816-38.42-68.036-44.423-102.053
		C369.363,290.452,365.761,304.459,362.559,310.462z"/>
	<path d="M507.034,320.868c0.4,6.403,1.201,14.808-1.2,26.014c14.808-13.607,49.226-40.821,59.23-98.051
		c-17.209,34.818-34.018,48.826-48.025,61.632c-3.202-6.003-6.803-20.01-15.608-40.821c-6.003,34.018-24.013,71.237-44.423,102.053
		C478.219,350.483,492.627,331.273,507.034,320.868z"/>
	<path d="M241.619,369.536c43.964,0.28,63.566,40.607,98.29,79.814c-17.922-35.566-39.204-70.012-76.728-94.656
		c6.721-12.882,16.242-53.77,17.642-96.617c-5.881,1.4-19.882,6.161-32.764,0.56c8.121-4.761,19.322-11.762,16.522-17.643
		c-19.882,0.56-70.567-24.084-70.567-24.084s0.56-9.522-0.28-12.882c-0.84-3.361-32.203-65.251-85.689-89.616
		c47.325,38.647,71.127,83.735,73.368,95.497c-4.2,0-10.361,0.84-31.083-5.041c18.202,12.042,67.207,33.886,96.33,41.167
		c-4.761,3.92-12.042,9.241-23.522,14.002c6.721,3.081,31.923,8.121,49.565,9.522C270.182,282.441,264.301,316.607,241.619,369.536z
		"/>
	<path d="M639.18,369.536c-22.682-52.929-28.563-87.095-31.083-99.977c17.642-1.4,42.844-6.441,49.565-9.522
		c-11.481-4.761-18.762-10.082-23.522-14.002c29.123-7.281,78.128-29.125,96.33-41.167c-20.722,5.881-26.883,5.041-31.083,5.041
		c2.24-11.762,26.042-56.85,73.368-95.497c-53.486,24.364-84.849,86.255-85.689,89.616c-0.84,3.36-0.28,12.882-0.28,12.882
		s-50.685,24.644-70.567,24.084c-2.8,5.881,8.401,12.882,16.522,17.643c-12.881,5.601-26.883,0.84-32.764-0.56
		c1.4,42.847,10.921,83.734,17.642,96.617c-37.524,24.644-58.806,59.09-76.728,94.656
		C575.614,410.144,595.216,369.816,639.18,369.536z"/>
	<path d="M387.262,819.975c11.877-4.824,30.163-17.426,32.855-40.317c3.153-26.806-11.469-69.947-11.469-69.947
		s3.753,24.075-2.742,29.505c-5.278,4.413-15.582,4.864-28.842,35.563c-4.266,9.875-12.269,23.643-10.323,42.243
		C371.77,820.711,378.186,823.662,387.262,819.975z"/>
	<path d="M492.68,819.975c9.077,3.687,15.492,0.736,20.521-2.953c1.947-18.6-6.057-32.367-10.322-42.243
		c-13.261-30.7-23.564-31.15-28.842-35.563c-6.495-5.431-2.742-29.505-2.742-29.505s-14.622,43.141-11.469,69.947
		C462.517,802.549,480.803,815.151,492.68,819.975z"/>
	<path d="M498.88,888.822c-20.962-11.264-63.199-17.835-100.743,10.951C428.485,889.135,462.275,886.945,498.88,888.822z"/>
	<path d="M882,441c0-107.817-38.693-206.596-102.948-283.212c4.553-22.23,10.129-53.833,10.129-53.833s-15.452-4.162-52.087,10.224
		C658.827,43.227,554.962,0,441,0C327.04,0,223.179,43.231,144.912,114.181c-36.641-14.389-52.094-10.227-52.094-10.227
		s5.576,31.601,10.129,53.831C38.692,234.402,0,333.183,0,441c0,81.645,22.192,158.104,60.865,223.685
		c-18.75,60.252-6.066,95.211-6.066,95.211s17.613-50.417,28.415-53.628c1.752,11.969,2.22,29.695,9.605,46.424
		c20.049,45.417,70.037,87.246,70.037,87.246s-17.609,5.203-38.02,4.402c-20.41-0.8-43.222-4.002-43.222-4.002
		s69.398,46.838,132.869,47.224c21.126,0.129,38.02-5.203,38.02-5.203l19.21,16.009c0,0-4.025,10.088-0.801,26.013
		c3.623,17.891,10.406,26.414,10.406,26.414s5.659-24.337,11.206-25.213c7.591,6.422,52.828,51.227,62.032,57.63
		c9.205,6.404,21.211,10.005,36.419,12.807c15.208,2.801,50.026,3.202,50.026,3.202s34.818-0.4,50.026-3.202
		c15.208-2.802,27.214-6.403,36.419-12.807c9.205-6.403,54.442-51.208,62.033-57.63c5.547,0.876,11.206,25.213,11.206,25.213
		s6.783-8.523,10.406-26.414c3.225-15.925-0.801-26.013-0.801-26.013l19.21-16.009c0,0,16.893,5.332,38.02,5.203
		c63.471-0.386,132.869-47.224,132.869-47.224s-22.812,3.202-43.222,4.002c-20.411,0.8-38.02-4.402-38.02-4.402
		s49.987-41.828,70.037-87.246c7.385-16.729,7.853-34.455,9.605-46.424c10.802,3.211,28.415,53.628,28.415,53.628
		s12.684-34.96-6.067-95.213C859.807,599.103,882,522.645,882,441z M864,449c0,71.504-17.743,138.864-49.064,197.919
		c-0.059-0.153-0.114-0.303-0.174-0.456c-13.101-33.747-30.869-60.299-47.342-90.574c-16.651-30.601-24.793-48.552-29.465-63.732
		c29.779-2.335,97.651,87.646,97.651,87.646s-21.211-57.229-33.617-76.44c-12.407-19.21-29.215-38.82-43.223-65.234
		c-14.007-26.414-23.343-56.735-43.59-92.858c-14.368-25.635-47.257-60.022-47.257-60.022s71.66-31.597,83.644-49.226
		c6-8.827,14.537-29.851,20.615-50.169C829.645,258.084,864,349.525,864,449z M441,26c103.556,0,198.405,37.231,271.936,99.013
		c-9.803,4.896-20.65,10.869-32.611,18.162c-37.345,22.771-72.038,57.63-72.038,57.63s-6.515-18.216-35.619-27.614
		c-17.948-5.796-56.029-7.204-56.029-7.204l34.418-33.217L441,154.781L330.942,132.77l34.418,33.217c0,0-38.081,1.408-56.029,7.204
		c-29.103,9.398-35.618,27.614-35.618,27.614s-34.692-34.859-72.038-57.63c-11.961-7.293-22.808-13.266-32.611-18.162
		C242.595,63.231,337.444,26,441,26z M18,449c0-99.475,34.355-190.916,91.823-263.146c6.078,20.319,14.615,41.343,20.615,50.169
		c11.983,17.628,83.644,49.226,83.644,49.226s-32.889,34.386-47.257,60.022c-20.247,36.123-29.583,66.444-43.59,92.858
		c-14.007,26.414-30.816,46.024-43.223,65.234c-12.406,19.21-33.617,76.44-33.617,76.44s67.872-89.981,97.651-87.646
		c-4.671,15.18-12.813,33.131-29.465,63.732c-16.474,30.275-34.241,56.828-47.343,90.574c-0.059,0.152-0.114,0.302-0.173,0.454
		C35.743,587.863,18,520.504,18,449z M211.921,877.638c-48.016-1.35-97.011-25.934-97.011-25.934s91.463-2.016,133.578-31.354
		c35.019-24.395,54.2-57.973,54.2-57.973s20.856,27.512,23.944,55.983C318.399,824.879,275.382,879.422,211.921,877.638z
		 M357.141,706.669c2.586,4.433,8.206,7.499,9.465,19.714c2.305,22.363-26.089,70.795-26.089,70.795s22.633-18.555,34.785-46.648
		c14.571-33.687,7.699-66.396,7.699-66.396s10.887-0.107,24.218-1.707c9.729-1.167,16.625-8.268,33.781-8.268
		s24.052,7.101,33.781,8.268c13.331,1.599,24.218,1.707,24.218,1.707s-6.872,32.708,7.699,66.396
		c12.152,28.093,34.785,46.648,34.785,46.648s-28.394-48.432-26.089-70.795c1.259-12.215,6.878-15.281,9.464-19.714
		c2.586-4.433-18.471-100.114-18.471-100.114s23.43,90.498,47.228,99.117c21.789,7.892,48.084,3.214,51.04,10.602
		c2.955,7.389-26.252,24.493-43.615,51.831s-24.125,82.908-32.597,87.073c-13.228,6.502-53.763-23.274-87.442-23.274
		s-74.215,29.776-87.442,23.274c-8.472-4.165-15.234-59.735-32.597-87.073c-17.363-27.337-46.57-44.442-43.615-51.831
		c2.956-7.388,29.251-2.71,51.04-10.602c23.797-8.619,47.228-99.117,47.228-99.117S354.555,702.236,357.141,706.669z
		 M613.719,759.325c-17.463,5.667-23.241-11.234-23.241-11.234s17.184-12.773,22.64-17.238c23.401-4.563,57.44-17.256,78.439-38.423
		s34.533-62.327,36.393-89.015c2.976,4.63,19.407,45.958,9.348,89.361c-21.603,44.234-85.985,92.563-117.304,99.076
		c30.634-22.408,79.858-72.051,88.575-85.011C666.027,743.682,632.237,755.025,613.719,759.325z M441,864.704
		c42.3,0,86.949,4.55,86.949,4.55l7.801,8.45c0,0-3.306,3.378-7.508,5.686c-1.895,4.202-17.458,41.594-26.947,45.34
		c-14.569,5.751-37.293,4.55-60.295,1.875c-23.002,2.674-45.726,3.876-60.295-1.875c-9.489-3.746-25.052-41.138-26.947-45.34
		c-4.202-2.307-7.508-5.686-7.508-5.686l7.801-8.45C354.051,869.254,398.7,864.704,441,864.704z M384.058,855.969
		c27.532-13.142,85.413-12.516,113.571,0C458.521,857.22,415.971,856.907,384.058,855.969z M291.522,748.091
		c0,0-11.953,15.187-17.409,24.613c-18.519-4.3-74.605-36.226-102.053-64.834c0.827,11.245,58.284,62.604,88.918,85.011
		c-29.947-6.513-98.103-60.331-118.333-99.419c-10.059-43.402,8.43-85.417,11.406-90.047c1.86,26.688,15.394,67.849,36.393,89.015
		s53.666,34.89,77.066,39.452C272.966,736.347,291.522,748.091,291.522,748.091z M603.041,884.602c0,0,3.517,24.811-1.586,42.52
		c-4.802-15.008-8.187-23.059-11.789-27.861c-27.614,22.211-50.029,73.987-82.01,84.359C474.339,994.425,441,981.601,441,981.601
		s-33.339,12.824-66.656,2.019c-31.98-10.372-54.396-62.147-82.01-84.359c-3.602,4.802-6.986,12.854-11.788,27.861
		c-5.103-17.709-2.187-43.721-2.187-43.721s-2.563-3.335-10.78-6.549c-0.655-0.256,59.492-39.569,63.31-51.856
		c3.607,14.533,7.392,25.133,11.756,34.566c-1.588,10.646-3.485,26.385-1.416,38.994c1.594-3.23,3.557-6.182,5.263-8.943
		c1.492,0.325,15.93,33.466,26.687,40.245c15.865,9.999,33.804,13.097,67.822,13.097c15.729,0,56.005-3.55,65.703-12.535
		c10.186-9.436,19.982-24.407,27.787-40.015c2.001,2.401,3.103,5.595,4.221,10.641c1.984-10.264,2.323-33.501-1.999-38.215
		c4.905-12.001,10.826-33.761,11.01-36.011c17.409,18.81,47.906,36.761,64.188,48.192
		C607.458,879.114,603.041,884.602,603.041,884.602z M767.09,851.705c0,0-48.995,24.584-97.01,25.934
		c-63.462,1.784-106.479-52.759-114.711-59.277c3.087-28.472,23.944-55.983,23.944-55.983s19.181,33.578,54.2,57.973
		C675.626,849.689,767.09,851.705,767.09,851.705z M792.261,676.285c0.767,22.636-0.066,52.715-14.373,77.698
		c-21.269,37.138-63.382,72.019-74.235,82.011c-20.325-3.067-65.623-16.236-77.186-33.864
		c38.747-13.329,91.758-48.713,112.887-85.208c31.943-55.174-5.369-146.482-35.724-184.602
		c21.391,49.799-4.696,133.001-15.902,147.809c-11.206,14.808-40.326,31.891-55.96,37.122
		c-6.207-12.792-21.434-17.356-45.509-14.546c16.739-20.455,36.304-37.381,44.254-48.485
		c-32.826,16.079-44.532,36.131-67.044,42.741c-30.362-38.187-50.038-93.675-54.052-113.194
		c17.11,17.105,56.293,21.806,68.871,10.441c-31.906,3.367-83.813-25.283-89.289-26.904c5.572,30.508,18.284,87.925,24.327,134.74
		c-2.678-0.386-6.698,0.1-7.432-2.924c-2.096-8.645-1.464-21.278-5.515-23.52c-10.407-5.759-18.766,3.4-28.753-1.852
		c-11.468-6.03-15.075-13.348-30.626-13.76c-21.465-0.569-37.692,26.701-54.853,11.125c-1.056-10.296,34.964-39.647,78.528-34.631
		c-11.089-15.577-44.691-26.895-69.509-16.863c0.264-12.672,40.026-33.821,73.82-36.726c-59.404-25.345-73.532-18.738-92.504-8.394
		c-17.5,9.542-30.411,17.886-72.275,19.895c28.245,23.017,67.677-15.533,66.888-9.621c-3.843,28.788-44.312,111.863-55.168,112.178
		c-10.769,0.313-41.746-35.434-64.025-39.763c21.433,19.224,38.329,40.862,42.197,45.702c-44.183-3.521-43.807,13.739-44.117,14.129
		c-26.36-5.41-40.13-20.583-53.147-32.324c-29.575-26.673-32.379-111.427-21.398-151.22
		c-85.747,131.931-30.113,194.815-14.58,209.221c53.792,49.887,76.328,52.695,92.451,58.526
		c-7.89,18.867-74.711,34.999-74.959,34.771c-10.853-9.992-52.967-44.873-74.235-82.011C89.805,729,88.972,698.92,89.74,676.285
		c-4.202-0.6-15.687,12.769-27.693,24.775c3.902-66.034,106.142-206.641,104.941-217.146c-9.005,0-51.622-0.637-91.094,45.843
		c12.945-26.318,41.974-52.344,54.445-76.873c12.733-25.044,24.537-69.529,43.938-100.133
		c18.872-29.772,48.723-62.376,59.758-72.139c-55.389-18.677-77.789-33.052-93.281-46.635
		c-15.492-13.583-32.534-85.397-40.811-121.689c55.813,4.669,131.857,57.084,178.545,104.201
		c5.73-17.191,22.591-24.046,49.556-30.604c26.964-6.558,58.269-7.499,76.519-7.287c-1.91-4.457-30.607-24.046-30.607-24.046
		L441,174.225l67.045-19.674c0,0-28.698,19.589-30.607,24.046c18.25-0.212,49.555,0.729,76.519,7.287
		c26.964,6.558,43.826,13.413,49.556,30.604c46.688-47.117,122.732-99.532,178.545-104.201
		c-8.277,36.293-25.319,108.106-40.811,121.689c-15.492,13.583-37.892,27.958-93.281,46.635
		c11.035,9.763,40.886,42.367,59.758,72.139c19.4,30.604,31.205,75.089,43.938,100.133c12.471,24.529,41.5,50.555,54.445,76.873
		c-39.473-46.48-82.09-45.843-91.095-45.843c-1.201,10.505,101.039,151.112,104.941,217.146
		C807.947,689.054,796.463,675.685,792.261,676.285z"/>
</g>
</svg>
