<?xml version="1.0" encoding="utf-8"?>
<!-- Generator: Adobe Illustrator 15.1.0, SVG Export Plug-In . SVG Version: 6.00 Build 0)  -->
<!DOCTYPE svg PUBLIC "-//W3C//DTD SVG 1.1//EN" "http://www.w3.org/Graphics/SVG/1.1/DTD/svg11.dtd">
<svg version="1.1" id="Layer_1" xmlns="http://www.w3.org/2000/svg" xmlns:xlink="http://www.w3.org/1999/xlink" x="0px" y="0px"
	 width="418.683px" height="601.001px" viewBox="0 0 418.683 601.001" enable-background="new 0 0 418.683 601.001"
	 xml:space="preserve">
<path fill-rule="evenodd" clip-rule="evenodd" fill="#FFFFFF" d="M409.841,258.501c-8.76-6.125-20.5,11-20.5,11
	s11.326-47.851,0.5-111c-6-35-27-73-37-86.5s-36.5-32.5-70-52.5s-73.5-19.5-73.5-19.5s-40-0.5-73.5,19.5s-60,39-70,52.5
	s-31,51.5-37,86.5c-10.826,63.149,0.5,111,0.5,111s-11.74-17.125-20.5-11c-22.167,15.5,4.333,71.333,4.333,71.333
	s22.667,111.667,58.167,163.167s103.5,101,118,104.5s20,3.5,20,3.5s5.5,0,20-3.5s82.5-53,118-104.5s58.167-163.167,58.167-163.167
	S432.008,274.001,409.841,258.501z"/>
<g>
	<path fill-rule="evenodd" clip-rule="evenodd" d="M404.327,311.297c-0.582-11.199-2.019-21.854-2.737-26.696
		c0.078-0.045,0.158-0.09,0.227-0.136c1.299-0.864,1.619-16.095,1.286-18.429c-0.333-2.333-9.655-16.988-11.655-20.274
		c-1,7.857-3.631,18.083-3.631,18.083s-25.143-1.524-71.143-1.524s-78.416,11.077-88.048,14.953
		c-3.813,1.534-15.286,1.762-19.286,1.762s-15.473-0.228-19.286-1.762c-9.632-3.875-42.048-14.953-88.048-14.953
		s-71.143,1.524-71.143,1.524s-2.631-10.226-3.631-18.083c-2,3.286-11.322,17.94-11.655,20.274
		c-0.333,2.333-0.014,17.565,1.286,18.429c0.069,0.046,0.149,0.091,0.227,0.136c-0.718,4.843-2.155,15.498-2.737,26.696
		c-0.79,15.206,0.57,32.003,3.751,48.581c3.716,19.365,7.124,63.465,18.561,86.694c12.834,26.067,33.172,62.207,47.784,76.623
		c15.312,15.107,48.904,51.089,67.332,62.009c15.616,9.253,36.625,15.798,57.558,15.798s41.942-6.545,57.558-15.798
		c18.428-10.919,52.02-46.901,67.332-62.009c14.612-14.416,34.95-50.555,47.784-76.623c11.437-23.229,14.845-67.329,18.561-86.694
		C403.757,343.3,405.117,326.503,404.327,311.297z M236.341,282.989c2.945-7.042,42.164-14.441,73.667-15.167
		c31.823-0.732,63.55-0.204,69.667,5.167c6.828,5.995,5.917,19.833,5.083,28.667c-0.833,8.833-3.75,22.333-7.583,26
		c-4.145,3.964-29.934,12.338-60,13.833c-29.092,1.447-50.56,0.127-59.167-5.667c-5.955-4.009-13.511-14.901-16.704-25.358
		c0.065-0.095,0.139-0.185,0.2-0.283c1.25-2,0.25-6.402-2.5-7.402c-0.018-0.006-0.031-0.01-0.049-0.016
		C236.548,294.711,234.635,287.07,236.341,282.989z M39.008,272.989c6.117-5.37,37.844-5.899,69.667-5.167
		c31.502,0.725,70.722,8.125,73.667,15.167c1.707,4.082-0.207,11.722-2.614,19.774c-0.018,0.006-0.031,0.009-0.049,0.016
		c-2.75,1-3.75,5.402-2.5,7.402c0.062,0.099,0.135,0.188,0.2,0.283c-3.192,10.457-10.749,21.35-16.704,25.358
		c-8.607,5.793-30.075,7.113-59.167,5.667c-30.066-1.495-55.855-9.869-60-13.833c-3.833-3.667-6.75-17.167-7.583-26
		C33.091,292.822,32.18,278.984,39.008,272.989z M300.861,495.942c-1.745,5.2-30.387,34.39-42.453,33.572
		c-11.846-0.803-24.089-15.206-24.089-15.206s8.096-1.975,16.191-0.79c-4.344-3.95-8.293-20.143-18.956-25.87
		c-9.083,0.79-13.328,1.185-22.213,1.185s-13.131-0.395-22.213-1.185c-10.663,5.727-14.612,21.92-18.956,25.87
		c8.095-1.185,16.191,0.79,16.191,0.79s-12.243,14.403-24.089,15.206c-12.066,0.818-40.708-28.372-42.453-33.572
		c-2.766-8.242,11.147-35.042,17.968-40.483c8.367-6.675,24.255-14.427,41.268-16.786c9.107-1.263,32.284,0.593,32.284,0.593
		s23.177-1.855,32.284-0.593c17.013,2.359,32.901,10.111,41.268,16.786C289.714,460.9,303.627,487.699,300.861,495.942z
		 M397.219,324.924c-0.79,16.983-7.306,40.286-16.191,63.391c-8.886,23.105-14.809,37.521-28.039,52.53
		c-13.229,15.009-34.513,32.245-35.147,30.215c-0.987-3.16-13.93-39.719-24-46.236c-10.07-6.517-54.192-19.92-54.192-19.92
		s-7.108,2.765-11.255,3.555s-19.054-1.58-19.054-1.58s-14.908,2.37-19.054,1.58s-11.255-3.555-11.255-3.555
		s-44.122,13.403-54.192,19.92c-10.07,6.517-23.013,43.076-24,46.236c-0.634,2.03-21.917-15.206-35.147-30.215
		c-13.229-15.008-19.153-29.425-28.039-52.53c-8.885-23.105-15.401-46.408-16.191-63.391c-0.621-13.348,1.197-30.958,2.004-37.889
		c0.448,0.197,0.86,0.402,1.207,0.621c3.167,2,4.868,39.575,11.75,44.167c6.568,4.382,20.683,13.155,59.917,15.833
		c32.95,2.25,58.994,0.659,70-8c6.171-4.856,11.104-15.852,14.867-26.27c0.387,0.113,0.77,0.186,1.133,0.186
		c1.75,0,4.685-7.957,2.935-9.707c-0.225-0.225-0.438-0.424-0.646-0.603c1.94-6.033,3.396-10.861,4.378-12.607
		c3-5.333,15.905-4.667,20.333-4.667s17.333-0.667,20.333,4.667c0.982,1.746,2.438,6.575,4.378,12.607
		c-0.208,0.178-0.422,0.378-0.646,0.603c-1.75,1.75,1.185,9.707,2.935,9.707c0.363,0,0.746-0.073,1.133-0.186
		c3.762,10.418,8.695,21.414,14.867,26.27c11.006,8.659,37.05,10.25,70,8c39.234-2.679,53.349-11.452,59.917-15.833
		c6.882-4.592,8.583-42.167,11.75-44.167c0.347-0.219,0.759-0.424,1.207-0.621C396.022,293.966,397.84,311.576,397.219,324.924z"/>
	<path fill-rule="evenodd" clip-rule="evenodd" d="M262.095,256.949c14.735,0,43.375-15.872,66.462-15.279
		c25.71,0.66,40.031,7.917,40.955,5.909c0.73-1.585-10.733-18.199-55.467-16.563c-43.936,1.608-63.143,14.644-63.425,20.291
		C250.423,255.258,254.589,256.949,262.095,256.949z"/>
	<path fill-rule="evenodd" clip-rule="evenodd" d="M90.125,241.67c23.088-0.593,51.728,15.279,66.462,15.279
		c7.506,0,11.672-1.691,11.474-5.642c-0.282-5.647-19.489-18.683-63.425-20.291c-44.734-1.637-56.197,14.978-55.467,16.563
		C50.094,249.587,64.415,242.33,90.125,241.67z"/>
</g>
</svg>
